<svg xmlns="http://www.w3.org/2000/svg" width="32" height="32" viewBox="0 0 32 32"><g transform="translate(0 -1020.362)"><path fill="#518ff5" d="m 26,1028.3621 0,18.5 c 0,0.831 -0.669,1.5 -1.50001,1.5 l -15.99997,0 c -0.83101,0 -1.50002,-0.669 -1.50002,-1.5 l 0,-22 c 0,-0.831 0.66901,-1.5 1.50002,-1.5 l 12.49998,0"/><path fill="#a6c5fa" d="m 21.00003,1023.3621 0,3.5 c 0,0.831 0.66899,1.5 1.5,1.5 l 3.5,0 z"/><path d="M11.007812 1033.8613a.50005.50005 0 100 1l6.625 0 4.367188 0a.50005.50005 0 100-1l-4.367188 0-6.625 0zM11.007812 1035.8613a.50005.50005 0 100 1l6.625 0 4.367188 0a.50005.50005 0 100-1l-4.367188 0-6.625 0zM11.007812 1039.8613a.50005.50005 0 100 1l4.367188 0 2.625 0a.50005.50005 0 100-1l-2.625 0-4.367188 0zm8.992188 0a.50005.50005 0 100 1 .50005.50005 0 100-1zM11.007812 1037.8613a.50005.50005 0 100 1l6.625 0 4.367188 0a.50005.50005 0 100-1l-4.367188 0-6.625 0z" style="line-height:normal;text-indent:0;text-align:start;text-decoration-line:none;text-decoration-style:solid;text-decoration-color:#000;text-transform:none;block-progression:tb;white-space:normal;isolation:auto;mix-blend-mode:normal;solid-color:#000;solid-opacity:1" fill="#f9f9f9" fill-rule="evenodd" color="#000" enable-background="accumulate" font-family="sans-serif" font-weight="400" overflow="visible"/></g></svg>